M48
;GenerationSoftware,Autodesk,EAGLE,9.3.0*%
;CreationDate,2019-05-21T21:46:53Z*%
FMAT,2
ICI,OFF
METRIC,TZ,000.000
T1C1.000
%
G90
M71
T1
X33350Y35890
X33350Y33350
X35890Y35890
X35890Y33350
X30810Y33350
X28270Y33350
X25730Y33350
X23190Y33350
X23190Y35890
X25730Y35890
X28270Y35890
X30810Y35890
X38430Y35890
X40970Y35890
X43510Y35890
X46050Y35890
X46050Y33350
X43510Y33350
X40970Y33350
X38430Y33350
X28270Y38430
X25730Y38430
X30810Y38430
X33350Y38430
X35890Y38430
X38430Y38430
X40970Y38430
X43510Y38430
X25730Y30810
X28270Y30810
X30810Y30810
X33350Y30810
X35890Y30810
X38430Y30810
X40970Y30810
X43510Y30810
X28270Y28270
X30810Y28270
X33350Y28270
X35890Y28270
X38430Y28270
X40970Y28270
X28270Y40970
X30810Y40970
X33350Y40970
X35890Y40970
X38430Y40970
X40970Y40970
X40970Y43510
X38430Y43510
X35890Y43510
X33350Y43510
X30810Y43510
X28270Y43510
X28270Y46050
X30810Y46050
X33350Y46050
X35890Y46050
X38430Y46050
X40970Y46050
X25730Y40970
X43510Y40970
X43510Y43510
X25730Y43510
X25730Y28270
X25730Y25730
X28270Y25730
X30810Y25730
X33350Y25730
X35890Y25730
X38430Y25730
X40970Y25730
X43510Y25730
X43510Y28270
X40970Y23190
X38430Y23190
X35890Y23190
X33350Y23190
X30810Y23190
X28270Y23190
X23190Y30810
X23190Y38430
X46050Y38430
X46050Y30810
M30