G04 EAGLE Gerber RS-274X export*
G75*
%MOMM*%
%FSLAX34Y34*%
%LPD*%
%INSilkscreen Top*%
%IPPOS*%
%AMOC8*
5,1,8,0,0,1.08239X$1,22.5*%
G01*
%ADD10C,0.101600*%
%ADD11C,0.609600*%


D10*
X381518Y476980D02*
X384764Y476980D01*
X384877Y476982D01*
X384990Y476988D01*
X385103Y476998D01*
X385216Y477012D01*
X385328Y477029D01*
X385439Y477051D01*
X385549Y477076D01*
X385659Y477106D01*
X385767Y477139D01*
X385874Y477176D01*
X385980Y477216D01*
X386084Y477261D01*
X386187Y477309D01*
X386288Y477360D01*
X386387Y477415D01*
X386484Y477473D01*
X386579Y477535D01*
X386672Y477600D01*
X386762Y477668D01*
X386850Y477739D01*
X386936Y477814D01*
X387019Y477891D01*
X387099Y477971D01*
X387176Y478054D01*
X387251Y478140D01*
X387322Y478228D01*
X387390Y478318D01*
X387455Y478411D01*
X387517Y478506D01*
X387575Y478603D01*
X387630Y478702D01*
X387681Y478803D01*
X387729Y478906D01*
X387774Y479010D01*
X387814Y479116D01*
X387851Y479223D01*
X387884Y479331D01*
X387914Y479441D01*
X387939Y479551D01*
X387961Y479662D01*
X387978Y479774D01*
X387992Y479887D01*
X388002Y480000D01*
X388008Y480113D01*
X388010Y480226D01*
X388008Y480339D01*
X388002Y480452D01*
X387992Y480565D01*
X387978Y480678D01*
X387961Y480790D01*
X387939Y480901D01*
X387914Y481011D01*
X387884Y481121D01*
X387851Y481229D01*
X387814Y481336D01*
X387774Y481442D01*
X387729Y481546D01*
X387681Y481649D01*
X387630Y481750D01*
X387575Y481849D01*
X387517Y481946D01*
X387455Y482041D01*
X387390Y482134D01*
X387322Y482224D01*
X387251Y482312D01*
X387176Y482398D01*
X387099Y482481D01*
X387019Y482561D01*
X386936Y482638D01*
X386850Y482713D01*
X386762Y482784D01*
X386672Y482852D01*
X386579Y482917D01*
X386484Y482979D01*
X386387Y483037D01*
X386288Y483092D01*
X386187Y483143D01*
X386084Y483191D01*
X385980Y483236D01*
X385874Y483276D01*
X385767Y483313D01*
X385659Y483346D01*
X385549Y483376D01*
X385439Y483401D01*
X385328Y483423D01*
X385216Y483440D01*
X385103Y483454D01*
X384990Y483464D01*
X384877Y483470D01*
X384764Y483472D01*
X385413Y488664D02*
X381518Y488664D01*
X385413Y488664D02*
X385514Y488662D01*
X385614Y488656D01*
X385714Y488646D01*
X385814Y488633D01*
X385913Y488615D01*
X386012Y488594D01*
X386109Y488569D01*
X386206Y488540D01*
X386301Y488507D01*
X386395Y488471D01*
X386487Y488431D01*
X386578Y488388D01*
X386667Y488341D01*
X386754Y488291D01*
X386840Y488237D01*
X386923Y488180D01*
X387003Y488120D01*
X387082Y488057D01*
X387158Y487990D01*
X387231Y487921D01*
X387301Y487849D01*
X387369Y487775D01*
X387434Y487698D01*
X387495Y487618D01*
X387554Y487536D01*
X387609Y487452D01*
X387661Y487366D01*
X387710Y487278D01*
X387755Y487188D01*
X387797Y487096D01*
X387835Y487003D01*
X387869Y486908D01*
X387900Y486813D01*
X387927Y486716D01*
X387950Y486618D01*
X387970Y486519D01*
X387985Y486419D01*
X387997Y486319D01*
X388005Y486219D01*
X388009Y486118D01*
X388009Y486018D01*
X388005Y485917D01*
X387997Y485817D01*
X387985Y485717D01*
X387970Y485617D01*
X387950Y485518D01*
X387927Y485420D01*
X387900Y485323D01*
X387869Y485228D01*
X387835Y485133D01*
X387797Y485040D01*
X387755Y484948D01*
X387710Y484858D01*
X387661Y484770D01*
X387609Y484684D01*
X387554Y484600D01*
X387495Y484518D01*
X387434Y484438D01*
X387369Y484361D01*
X387301Y484287D01*
X387231Y484215D01*
X387158Y484146D01*
X387082Y484079D01*
X387003Y484016D01*
X386923Y483956D01*
X386840Y483899D01*
X386754Y483845D01*
X386667Y483795D01*
X386578Y483748D01*
X386487Y483705D01*
X386395Y483665D01*
X386301Y483629D01*
X386206Y483596D01*
X386109Y483567D01*
X386012Y483542D01*
X385913Y483521D01*
X385814Y483503D01*
X385714Y483490D01*
X385614Y483480D01*
X385514Y483474D01*
X385413Y483472D01*
X385413Y483471D02*
X382817Y483471D01*
X392299Y488664D02*
X396194Y476980D01*
X400089Y488664D01*
X404378Y476980D02*
X407624Y476980D01*
X407737Y476982D01*
X407850Y476988D01*
X407963Y476998D01*
X408076Y477012D01*
X408188Y477029D01*
X408299Y477051D01*
X408409Y477076D01*
X408519Y477106D01*
X408627Y477139D01*
X408734Y477176D01*
X408840Y477216D01*
X408944Y477261D01*
X409047Y477309D01*
X409148Y477360D01*
X409247Y477415D01*
X409344Y477473D01*
X409439Y477535D01*
X409532Y477600D01*
X409622Y477668D01*
X409710Y477739D01*
X409796Y477814D01*
X409879Y477891D01*
X409959Y477971D01*
X410036Y478054D01*
X410111Y478140D01*
X410182Y478228D01*
X410250Y478318D01*
X410315Y478411D01*
X410377Y478506D01*
X410435Y478603D01*
X410490Y478702D01*
X410541Y478803D01*
X410589Y478906D01*
X410634Y479010D01*
X410674Y479116D01*
X410711Y479223D01*
X410744Y479331D01*
X410774Y479441D01*
X410799Y479551D01*
X410821Y479662D01*
X410838Y479774D01*
X410852Y479887D01*
X410862Y480000D01*
X410868Y480113D01*
X410870Y480226D01*
X410868Y480339D01*
X410862Y480452D01*
X410852Y480565D01*
X410838Y480678D01*
X410821Y480790D01*
X410799Y480901D01*
X410774Y481011D01*
X410744Y481121D01*
X410711Y481229D01*
X410674Y481336D01*
X410634Y481442D01*
X410589Y481546D01*
X410541Y481649D01*
X410490Y481750D01*
X410435Y481849D01*
X410377Y481946D01*
X410315Y482041D01*
X410250Y482134D01*
X410182Y482224D01*
X410111Y482312D01*
X410036Y482398D01*
X409959Y482481D01*
X409879Y482561D01*
X409796Y482638D01*
X409710Y482713D01*
X409622Y482784D01*
X409532Y482852D01*
X409439Y482917D01*
X409344Y482979D01*
X409247Y483037D01*
X409148Y483092D01*
X409047Y483143D01*
X408944Y483191D01*
X408840Y483236D01*
X408734Y483276D01*
X408627Y483313D01*
X408519Y483346D01*
X408409Y483376D01*
X408299Y483401D01*
X408188Y483423D01*
X408076Y483440D01*
X407963Y483454D01*
X407850Y483464D01*
X407737Y483470D01*
X407624Y483472D01*
X408273Y488664D02*
X404378Y488664D01*
X408273Y488664D02*
X408374Y488662D01*
X408474Y488656D01*
X408574Y488646D01*
X408674Y488633D01*
X408773Y488615D01*
X408872Y488594D01*
X408969Y488569D01*
X409066Y488540D01*
X409161Y488507D01*
X409255Y488471D01*
X409347Y488431D01*
X409438Y488388D01*
X409527Y488341D01*
X409614Y488291D01*
X409700Y488237D01*
X409783Y488180D01*
X409863Y488120D01*
X409942Y488057D01*
X410018Y487990D01*
X410091Y487921D01*
X410161Y487849D01*
X410229Y487775D01*
X410294Y487698D01*
X410355Y487618D01*
X410414Y487536D01*
X410469Y487452D01*
X410521Y487366D01*
X410570Y487278D01*
X410615Y487188D01*
X410657Y487096D01*
X410695Y487003D01*
X410729Y486908D01*
X410760Y486813D01*
X410787Y486716D01*
X410810Y486618D01*
X410830Y486519D01*
X410845Y486419D01*
X410857Y486319D01*
X410865Y486219D01*
X410869Y486118D01*
X410869Y486018D01*
X410865Y485917D01*
X410857Y485817D01*
X410845Y485717D01*
X410830Y485617D01*
X410810Y485518D01*
X410787Y485420D01*
X410760Y485323D01*
X410729Y485228D01*
X410695Y485133D01*
X410657Y485040D01*
X410615Y484948D01*
X410570Y484858D01*
X410521Y484770D01*
X410469Y484684D01*
X410414Y484600D01*
X410355Y484518D01*
X410294Y484438D01*
X410229Y484361D01*
X410161Y484287D01*
X410091Y484215D01*
X410018Y484146D01*
X409942Y484079D01*
X409863Y484016D01*
X409783Y483956D01*
X409700Y483899D01*
X409614Y483845D01*
X409527Y483795D01*
X409438Y483748D01*
X409347Y483705D01*
X409255Y483665D01*
X409161Y483629D01*
X409066Y483596D01*
X408969Y483567D01*
X408872Y483542D01*
X408773Y483521D01*
X408674Y483503D01*
X408574Y483490D01*
X408474Y483480D01*
X408374Y483474D01*
X408273Y483472D01*
X408273Y483471D02*
X405677Y483471D01*
X497242Y334770D02*
X497242Y331524D01*
X497242Y334770D02*
X497240Y334883D01*
X497234Y334996D01*
X497224Y335109D01*
X497210Y335222D01*
X497193Y335334D01*
X497171Y335445D01*
X497146Y335555D01*
X497116Y335665D01*
X497083Y335773D01*
X497046Y335880D01*
X497006Y335986D01*
X496961Y336090D01*
X496913Y336193D01*
X496862Y336294D01*
X496807Y336393D01*
X496749Y336490D01*
X496687Y336585D01*
X496622Y336678D01*
X496554Y336768D01*
X496483Y336856D01*
X496408Y336942D01*
X496331Y337025D01*
X496251Y337105D01*
X496168Y337182D01*
X496082Y337257D01*
X495994Y337328D01*
X495904Y337396D01*
X495811Y337461D01*
X495716Y337523D01*
X495619Y337581D01*
X495520Y337636D01*
X495419Y337687D01*
X495316Y337735D01*
X495212Y337780D01*
X495106Y337820D01*
X494999Y337857D01*
X494891Y337890D01*
X494781Y337920D01*
X494671Y337945D01*
X494560Y337967D01*
X494448Y337984D01*
X494335Y337998D01*
X494222Y338008D01*
X494109Y338014D01*
X493996Y338016D01*
X493883Y338014D01*
X493770Y338008D01*
X493657Y337998D01*
X493544Y337984D01*
X493432Y337967D01*
X493321Y337945D01*
X493211Y337920D01*
X493101Y337890D01*
X492993Y337857D01*
X492886Y337820D01*
X492780Y337780D01*
X492676Y337735D01*
X492573Y337687D01*
X492472Y337636D01*
X492373Y337581D01*
X492276Y337523D01*
X492181Y337461D01*
X492088Y337396D01*
X491998Y337328D01*
X491910Y337257D01*
X491824Y337182D01*
X491741Y337105D01*
X491661Y337025D01*
X491584Y336942D01*
X491509Y336856D01*
X491438Y336768D01*
X491370Y336678D01*
X491305Y336585D01*
X491243Y336490D01*
X491185Y336393D01*
X491130Y336294D01*
X491079Y336193D01*
X491031Y336090D01*
X490986Y335986D01*
X490946Y335880D01*
X490909Y335773D01*
X490876Y335665D01*
X490846Y335555D01*
X490821Y335445D01*
X490799Y335334D01*
X490782Y335222D01*
X490768Y335109D01*
X490758Y334996D01*
X490752Y334883D01*
X490750Y334770D01*
X485558Y335419D02*
X485558Y331524D01*
X485558Y335419D02*
X485560Y335520D01*
X485566Y335620D01*
X485576Y335720D01*
X485589Y335820D01*
X485607Y335919D01*
X485628Y336018D01*
X485653Y336115D01*
X485682Y336212D01*
X485715Y336307D01*
X485751Y336401D01*
X485791Y336493D01*
X485834Y336584D01*
X485881Y336673D01*
X485931Y336760D01*
X485985Y336846D01*
X486042Y336929D01*
X486102Y337009D01*
X486165Y337088D01*
X486232Y337164D01*
X486301Y337237D01*
X486373Y337307D01*
X486447Y337375D01*
X486524Y337440D01*
X486604Y337501D01*
X486686Y337560D01*
X486770Y337615D01*
X486856Y337667D01*
X486944Y337716D01*
X487034Y337761D01*
X487126Y337803D01*
X487219Y337841D01*
X487314Y337875D01*
X487409Y337906D01*
X487506Y337933D01*
X487604Y337956D01*
X487703Y337976D01*
X487803Y337991D01*
X487903Y338003D01*
X488003Y338011D01*
X488104Y338015D01*
X488204Y338015D01*
X488305Y338011D01*
X488405Y338003D01*
X488505Y337991D01*
X488605Y337976D01*
X488704Y337956D01*
X488802Y337933D01*
X488899Y337906D01*
X488994Y337875D01*
X489089Y337841D01*
X489182Y337803D01*
X489274Y337761D01*
X489364Y337716D01*
X489452Y337667D01*
X489538Y337615D01*
X489622Y337560D01*
X489704Y337501D01*
X489784Y337440D01*
X489861Y337375D01*
X489935Y337307D01*
X490007Y337237D01*
X490076Y337164D01*
X490143Y337088D01*
X490206Y337009D01*
X490266Y336929D01*
X490323Y336846D01*
X490377Y336760D01*
X490427Y336673D01*
X490474Y336584D01*
X490517Y336493D01*
X490557Y336401D01*
X490593Y336307D01*
X490626Y336212D01*
X490655Y336115D01*
X490680Y336018D01*
X490701Y335919D01*
X490719Y335820D01*
X490732Y335720D01*
X490742Y335620D01*
X490748Y335520D01*
X490750Y335419D01*
X490751Y335419D02*
X490751Y332823D01*
X485558Y342305D02*
X497242Y346200D01*
X485558Y350095D01*
X497242Y354384D02*
X497242Y357630D01*
X497240Y357743D01*
X497234Y357856D01*
X497224Y357969D01*
X497210Y358082D01*
X497193Y358194D01*
X497171Y358305D01*
X497146Y358415D01*
X497116Y358525D01*
X497083Y358633D01*
X497046Y358740D01*
X497006Y358846D01*
X496961Y358950D01*
X496913Y359053D01*
X496862Y359154D01*
X496807Y359253D01*
X496749Y359350D01*
X496687Y359445D01*
X496622Y359538D01*
X496554Y359628D01*
X496483Y359716D01*
X496408Y359802D01*
X496331Y359885D01*
X496251Y359965D01*
X496168Y360042D01*
X496082Y360117D01*
X495994Y360188D01*
X495904Y360256D01*
X495811Y360321D01*
X495716Y360383D01*
X495619Y360441D01*
X495520Y360496D01*
X495419Y360547D01*
X495316Y360595D01*
X495212Y360640D01*
X495106Y360680D01*
X494999Y360717D01*
X494891Y360750D01*
X494781Y360780D01*
X494671Y360805D01*
X494560Y360827D01*
X494448Y360844D01*
X494335Y360858D01*
X494222Y360868D01*
X494109Y360874D01*
X493996Y360876D01*
X493883Y360874D01*
X493770Y360868D01*
X493657Y360858D01*
X493544Y360844D01*
X493432Y360827D01*
X493321Y360805D01*
X493211Y360780D01*
X493101Y360750D01*
X492993Y360717D01*
X492886Y360680D01*
X492780Y360640D01*
X492676Y360595D01*
X492573Y360547D01*
X492472Y360496D01*
X492373Y360441D01*
X492276Y360383D01*
X492181Y360321D01*
X492088Y360256D01*
X491998Y360188D01*
X491910Y360117D01*
X491824Y360042D01*
X491741Y359965D01*
X491661Y359885D01*
X491584Y359802D01*
X491509Y359716D01*
X491438Y359628D01*
X491370Y359538D01*
X491305Y359445D01*
X491243Y359350D01*
X491185Y359253D01*
X491130Y359154D01*
X491079Y359053D01*
X491031Y358950D01*
X490986Y358846D01*
X490946Y358740D01*
X490909Y358633D01*
X490876Y358525D01*
X490846Y358415D01*
X490821Y358305D01*
X490799Y358194D01*
X490782Y358082D01*
X490768Y357969D01*
X490758Y357856D01*
X490752Y357743D01*
X490750Y357630D01*
X485558Y358279D02*
X485558Y354384D01*
X485558Y358279D02*
X485560Y358380D01*
X485566Y358480D01*
X485576Y358580D01*
X485589Y358680D01*
X485607Y358779D01*
X485628Y358878D01*
X485653Y358975D01*
X485682Y359072D01*
X485715Y359167D01*
X485751Y359261D01*
X485791Y359353D01*
X485834Y359444D01*
X485881Y359533D01*
X485931Y359620D01*
X485985Y359706D01*
X486042Y359789D01*
X486102Y359869D01*
X486165Y359948D01*
X486232Y360024D01*
X486301Y360097D01*
X486373Y360167D01*
X486447Y360235D01*
X486524Y360300D01*
X486604Y360361D01*
X486686Y360420D01*
X486770Y360475D01*
X486856Y360527D01*
X486944Y360576D01*
X487034Y360621D01*
X487126Y360663D01*
X487219Y360701D01*
X487314Y360735D01*
X487409Y360766D01*
X487506Y360793D01*
X487604Y360816D01*
X487703Y360836D01*
X487803Y360851D01*
X487903Y360863D01*
X488003Y360871D01*
X488104Y360875D01*
X488204Y360875D01*
X488305Y360871D01*
X488405Y360863D01*
X488505Y360851D01*
X488605Y360836D01*
X488704Y360816D01*
X488802Y360793D01*
X488899Y360766D01*
X488994Y360735D01*
X489089Y360701D01*
X489182Y360663D01*
X489274Y360621D01*
X489364Y360576D01*
X489452Y360527D01*
X489538Y360475D01*
X489622Y360420D01*
X489704Y360361D01*
X489784Y360300D01*
X489861Y360235D01*
X489935Y360167D01*
X490007Y360097D01*
X490076Y360024D01*
X490143Y359948D01*
X490206Y359869D01*
X490266Y359789D01*
X490323Y359706D01*
X490377Y359620D01*
X490427Y359533D01*
X490474Y359444D01*
X490517Y359353D01*
X490557Y359261D01*
X490593Y359167D01*
X490626Y359072D01*
X490655Y358975D01*
X490680Y358878D01*
X490701Y358779D01*
X490719Y358680D01*
X490732Y358580D01*
X490742Y358480D01*
X490748Y358380D01*
X490750Y358279D01*
X490751Y358279D02*
X490751Y355683D01*
X385272Y203960D02*
X382026Y203960D01*
X385272Y203960D02*
X385385Y203962D01*
X385498Y203968D01*
X385611Y203978D01*
X385724Y203992D01*
X385836Y204009D01*
X385947Y204031D01*
X386057Y204056D01*
X386167Y204086D01*
X386275Y204119D01*
X386382Y204156D01*
X386488Y204196D01*
X386592Y204241D01*
X386695Y204289D01*
X386796Y204340D01*
X386895Y204395D01*
X386992Y204453D01*
X387087Y204515D01*
X387180Y204580D01*
X387270Y204648D01*
X387358Y204719D01*
X387444Y204794D01*
X387527Y204871D01*
X387607Y204951D01*
X387684Y205034D01*
X387759Y205120D01*
X387830Y205208D01*
X387898Y205298D01*
X387963Y205391D01*
X388025Y205486D01*
X388083Y205583D01*
X388138Y205682D01*
X388189Y205783D01*
X388237Y205886D01*
X388282Y205990D01*
X388322Y206096D01*
X388359Y206203D01*
X388392Y206311D01*
X388422Y206421D01*
X388447Y206531D01*
X388469Y206642D01*
X388486Y206754D01*
X388500Y206867D01*
X388510Y206980D01*
X388516Y207093D01*
X388518Y207206D01*
X388516Y207319D01*
X388510Y207432D01*
X388500Y207545D01*
X388486Y207658D01*
X388469Y207770D01*
X388447Y207881D01*
X388422Y207991D01*
X388392Y208101D01*
X388359Y208209D01*
X388322Y208316D01*
X388282Y208422D01*
X388237Y208526D01*
X388189Y208629D01*
X388138Y208730D01*
X388083Y208829D01*
X388025Y208926D01*
X387963Y209021D01*
X387898Y209114D01*
X387830Y209204D01*
X387759Y209292D01*
X387684Y209378D01*
X387607Y209461D01*
X387527Y209541D01*
X387444Y209618D01*
X387358Y209693D01*
X387270Y209764D01*
X387180Y209832D01*
X387087Y209897D01*
X386992Y209959D01*
X386895Y210017D01*
X386796Y210072D01*
X386695Y210123D01*
X386592Y210171D01*
X386488Y210216D01*
X386382Y210256D01*
X386275Y210293D01*
X386167Y210326D01*
X386057Y210356D01*
X385947Y210381D01*
X385836Y210403D01*
X385724Y210420D01*
X385611Y210434D01*
X385498Y210444D01*
X385385Y210450D01*
X385272Y210452D01*
X385921Y215644D02*
X382026Y215644D01*
X385921Y215644D02*
X386022Y215642D01*
X386122Y215636D01*
X386222Y215626D01*
X386322Y215613D01*
X386421Y215595D01*
X386520Y215574D01*
X386617Y215549D01*
X386714Y215520D01*
X386809Y215487D01*
X386903Y215451D01*
X386995Y215411D01*
X387086Y215368D01*
X387175Y215321D01*
X387262Y215271D01*
X387348Y215217D01*
X387431Y215160D01*
X387511Y215100D01*
X387590Y215037D01*
X387666Y214970D01*
X387739Y214901D01*
X387809Y214829D01*
X387877Y214755D01*
X387942Y214678D01*
X388003Y214598D01*
X388062Y214516D01*
X388117Y214432D01*
X388169Y214346D01*
X388218Y214258D01*
X388263Y214168D01*
X388305Y214076D01*
X388343Y213983D01*
X388377Y213888D01*
X388408Y213793D01*
X388435Y213696D01*
X388458Y213598D01*
X388478Y213499D01*
X388493Y213399D01*
X388505Y213299D01*
X388513Y213199D01*
X388517Y213098D01*
X388517Y212998D01*
X388513Y212897D01*
X388505Y212797D01*
X388493Y212697D01*
X388478Y212597D01*
X388458Y212498D01*
X388435Y212400D01*
X388408Y212303D01*
X388377Y212208D01*
X388343Y212113D01*
X388305Y212020D01*
X388263Y211928D01*
X388218Y211838D01*
X388169Y211750D01*
X388117Y211664D01*
X388062Y211580D01*
X388003Y211498D01*
X387942Y211418D01*
X387877Y211341D01*
X387809Y211267D01*
X387739Y211195D01*
X387666Y211126D01*
X387590Y211059D01*
X387511Y210996D01*
X387431Y210936D01*
X387348Y210879D01*
X387262Y210825D01*
X387175Y210775D01*
X387086Y210728D01*
X386995Y210685D01*
X386903Y210645D01*
X386809Y210609D01*
X386714Y210576D01*
X386617Y210547D01*
X386520Y210522D01*
X386421Y210501D01*
X386322Y210483D01*
X386222Y210470D01*
X386122Y210460D01*
X386022Y210454D01*
X385921Y210452D01*
X385921Y210451D02*
X383325Y210451D01*
X392807Y215644D02*
X396702Y203960D01*
X400597Y215644D01*
X404886Y203960D02*
X408132Y203960D01*
X408245Y203962D01*
X408358Y203968D01*
X408471Y203978D01*
X408584Y203992D01*
X408696Y204009D01*
X408807Y204031D01*
X408917Y204056D01*
X409027Y204086D01*
X409135Y204119D01*
X409242Y204156D01*
X409348Y204196D01*
X409452Y204241D01*
X409555Y204289D01*
X409656Y204340D01*
X409755Y204395D01*
X409852Y204453D01*
X409947Y204515D01*
X410040Y204580D01*
X410130Y204648D01*
X410218Y204719D01*
X410304Y204794D01*
X410387Y204871D01*
X410467Y204951D01*
X410544Y205034D01*
X410619Y205120D01*
X410690Y205208D01*
X410758Y205298D01*
X410823Y205391D01*
X410885Y205486D01*
X410943Y205583D01*
X410998Y205682D01*
X411049Y205783D01*
X411097Y205886D01*
X411142Y205990D01*
X411182Y206096D01*
X411219Y206203D01*
X411252Y206311D01*
X411282Y206421D01*
X411307Y206531D01*
X411329Y206642D01*
X411346Y206754D01*
X411360Y206867D01*
X411370Y206980D01*
X411376Y207093D01*
X411378Y207206D01*
X411376Y207319D01*
X411370Y207432D01*
X411360Y207545D01*
X411346Y207658D01*
X411329Y207770D01*
X411307Y207881D01*
X411282Y207991D01*
X411252Y208101D01*
X411219Y208209D01*
X411182Y208316D01*
X411142Y208422D01*
X411097Y208526D01*
X411049Y208629D01*
X410998Y208730D01*
X410943Y208829D01*
X410885Y208926D01*
X410823Y209021D01*
X410758Y209114D01*
X410690Y209204D01*
X410619Y209292D01*
X410544Y209378D01*
X410467Y209461D01*
X410387Y209541D01*
X410304Y209618D01*
X410218Y209693D01*
X410130Y209764D01*
X410040Y209832D01*
X409947Y209897D01*
X409852Y209959D01*
X409755Y210017D01*
X409656Y210072D01*
X409555Y210123D01*
X409452Y210171D01*
X409348Y210216D01*
X409242Y210256D01*
X409135Y210293D01*
X409027Y210326D01*
X408917Y210356D01*
X408807Y210381D01*
X408696Y210403D01*
X408584Y210420D01*
X408471Y210434D01*
X408358Y210444D01*
X408245Y210450D01*
X408132Y210452D01*
X408781Y215644D02*
X404886Y215644D01*
X408781Y215644D02*
X408882Y215642D01*
X408982Y215636D01*
X409082Y215626D01*
X409182Y215613D01*
X409281Y215595D01*
X409380Y215574D01*
X409477Y215549D01*
X409574Y215520D01*
X409669Y215487D01*
X409763Y215451D01*
X409855Y215411D01*
X409946Y215368D01*
X410035Y215321D01*
X410122Y215271D01*
X410208Y215217D01*
X410291Y215160D01*
X410371Y215100D01*
X410450Y215037D01*
X410526Y214970D01*
X410599Y214901D01*
X410669Y214829D01*
X410737Y214755D01*
X410802Y214678D01*
X410863Y214598D01*
X410922Y214516D01*
X410977Y214432D01*
X411029Y214346D01*
X411078Y214258D01*
X411123Y214168D01*
X411165Y214076D01*
X411203Y213983D01*
X411237Y213888D01*
X411268Y213793D01*
X411295Y213696D01*
X411318Y213598D01*
X411338Y213499D01*
X411353Y213399D01*
X411365Y213299D01*
X411373Y213199D01*
X411377Y213098D01*
X411377Y212998D01*
X411373Y212897D01*
X411365Y212797D01*
X411353Y212697D01*
X411338Y212597D01*
X411318Y212498D01*
X411295Y212400D01*
X411268Y212303D01*
X411237Y212208D01*
X411203Y212113D01*
X411165Y212020D01*
X411123Y211928D01*
X411078Y211838D01*
X411029Y211750D01*
X410977Y211664D01*
X410922Y211580D01*
X410863Y211498D01*
X410802Y211418D01*
X410737Y211341D01*
X410669Y211267D01*
X410599Y211195D01*
X410526Y211126D01*
X410450Y211059D01*
X410371Y210996D01*
X410291Y210936D01*
X410208Y210879D01*
X410122Y210825D01*
X410035Y210775D01*
X409946Y210728D01*
X409855Y210685D01*
X409763Y210645D01*
X409669Y210609D01*
X409574Y210576D01*
X409477Y210547D01*
X409380Y210522D01*
X409281Y210501D01*
X409182Y210483D01*
X409082Y210470D01*
X408982Y210460D01*
X408882Y210454D01*
X408781Y210452D01*
X408781Y210451D02*
X406185Y210451D01*
X206842Y331524D02*
X206842Y334770D01*
X206840Y334883D01*
X206834Y334996D01*
X206824Y335109D01*
X206810Y335222D01*
X206793Y335334D01*
X206771Y335445D01*
X206746Y335555D01*
X206716Y335665D01*
X206683Y335773D01*
X206646Y335880D01*
X206606Y335986D01*
X206561Y336090D01*
X206513Y336193D01*
X206462Y336294D01*
X206407Y336393D01*
X206349Y336490D01*
X206287Y336585D01*
X206222Y336678D01*
X206154Y336768D01*
X206083Y336856D01*
X206008Y336942D01*
X205931Y337025D01*
X205851Y337105D01*
X205768Y337182D01*
X205682Y337257D01*
X205594Y337328D01*
X205504Y337396D01*
X205411Y337461D01*
X205316Y337523D01*
X205219Y337581D01*
X205120Y337636D01*
X205019Y337687D01*
X204916Y337735D01*
X204812Y337780D01*
X204706Y337820D01*
X204599Y337857D01*
X204491Y337890D01*
X204381Y337920D01*
X204271Y337945D01*
X204160Y337967D01*
X204048Y337984D01*
X203935Y337998D01*
X203822Y338008D01*
X203709Y338014D01*
X203596Y338016D01*
X203483Y338014D01*
X203370Y338008D01*
X203257Y337998D01*
X203144Y337984D01*
X203032Y337967D01*
X202921Y337945D01*
X202811Y337920D01*
X202701Y337890D01*
X202593Y337857D01*
X202486Y337820D01*
X202380Y337780D01*
X202276Y337735D01*
X202173Y337687D01*
X202072Y337636D01*
X201973Y337581D01*
X201876Y337523D01*
X201781Y337461D01*
X201688Y337396D01*
X201598Y337328D01*
X201510Y337257D01*
X201424Y337182D01*
X201341Y337105D01*
X201261Y337025D01*
X201184Y336942D01*
X201109Y336856D01*
X201038Y336768D01*
X200970Y336678D01*
X200905Y336585D01*
X200843Y336490D01*
X200785Y336393D01*
X200730Y336294D01*
X200679Y336193D01*
X200631Y336090D01*
X200586Y335986D01*
X200546Y335880D01*
X200509Y335773D01*
X200476Y335665D01*
X200446Y335555D01*
X200421Y335445D01*
X200399Y335334D01*
X200382Y335222D01*
X200368Y335109D01*
X200358Y334996D01*
X200352Y334883D01*
X200350Y334770D01*
X195158Y335419D02*
X195158Y331524D01*
X195158Y335419D02*
X195160Y335520D01*
X195166Y335620D01*
X195176Y335720D01*
X195189Y335820D01*
X195207Y335919D01*
X195228Y336018D01*
X195253Y336115D01*
X195282Y336212D01*
X195315Y336307D01*
X195351Y336401D01*
X195391Y336493D01*
X195434Y336584D01*
X195481Y336673D01*
X195531Y336760D01*
X195585Y336846D01*
X195642Y336929D01*
X195702Y337009D01*
X195765Y337088D01*
X195832Y337164D01*
X195901Y337237D01*
X195973Y337307D01*
X196047Y337375D01*
X196124Y337440D01*
X196204Y337501D01*
X196286Y337560D01*
X196370Y337615D01*
X196456Y337667D01*
X196544Y337716D01*
X196634Y337761D01*
X196726Y337803D01*
X196819Y337841D01*
X196914Y337875D01*
X197009Y337906D01*
X197106Y337933D01*
X197204Y337956D01*
X197303Y337976D01*
X197403Y337991D01*
X197503Y338003D01*
X197603Y338011D01*
X197704Y338015D01*
X197804Y338015D01*
X197905Y338011D01*
X198005Y338003D01*
X198105Y337991D01*
X198205Y337976D01*
X198304Y337956D01*
X198402Y337933D01*
X198499Y337906D01*
X198594Y337875D01*
X198689Y337841D01*
X198782Y337803D01*
X198874Y337761D01*
X198964Y337716D01*
X199052Y337667D01*
X199138Y337615D01*
X199222Y337560D01*
X199304Y337501D01*
X199384Y337440D01*
X199461Y337375D01*
X199535Y337307D01*
X199607Y337237D01*
X199676Y337164D01*
X199743Y337088D01*
X199806Y337009D01*
X199866Y336929D01*
X199923Y336846D01*
X199977Y336760D01*
X200027Y336673D01*
X200074Y336584D01*
X200117Y336493D01*
X200157Y336401D01*
X200193Y336307D01*
X200226Y336212D01*
X200255Y336115D01*
X200280Y336018D01*
X200301Y335919D01*
X200319Y335820D01*
X200332Y335720D01*
X200342Y335620D01*
X200348Y335520D01*
X200350Y335419D01*
X200351Y335419D02*
X200351Y332823D01*
X195158Y342305D02*
X206842Y346200D01*
X195158Y350095D01*
X206842Y354384D02*
X206842Y357630D01*
X206840Y357743D01*
X206834Y357856D01*
X206824Y357969D01*
X206810Y358082D01*
X206793Y358194D01*
X206771Y358305D01*
X206746Y358415D01*
X206716Y358525D01*
X206683Y358633D01*
X206646Y358740D01*
X206606Y358846D01*
X206561Y358950D01*
X206513Y359053D01*
X206462Y359154D01*
X206407Y359253D01*
X206349Y359350D01*
X206287Y359445D01*
X206222Y359538D01*
X206154Y359628D01*
X206083Y359716D01*
X206008Y359802D01*
X205931Y359885D01*
X205851Y359965D01*
X205768Y360042D01*
X205682Y360117D01*
X205594Y360188D01*
X205504Y360256D01*
X205411Y360321D01*
X205316Y360383D01*
X205219Y360441D01*
X205120Y360496D01*
X205019Y360547D01*
X204916Y360595D01*
X204812Y360640D01*
X204706Y360680D01*
X204599Y360717D01*
X204491Y360750D01*
X204381Y360780D01*
X204271Y360805D01*
X204160Y360827D01*
X204048Y360844D01*
X203935Y360858D01*
X203822Y360868D01*
X203709Y360874D01*
X203596Y360876D01*
X203483Y360874D01*
X203370Y360868D01*
X203257Y360858D01*
X203144Y360844D01*
X203032Y360827D01*
X202921Y360805D01*
X202811Y360780D01*
X202701Y360750D01*
X202593Y360717D01*
X202486Y360680D01*
X202380Y360640D01*
X202276Y360595D01*
X202173Y360547D01*
X202072Y360496D01*
X201973Y360441D01*
X201876Y360383D01*
X201781Y360321D01*
X201688Y360256D01*
X201598Y360188D01*
X201510Y360117D01*
X201424Y360042D01*
X201341Y359965D01*
X201261Y359885D01*
X201184Y359802D01*
X201109Y359716D01*
X201038Y359628D01*
X200970Y359538D01*
X200905Y359445D01*
X200843Y359350D01*
X200785Y359253D01*
X200730Y359154D01*
X200679Y359053D01*
X200631Y358950D01*
X200586Y358846D01*
X200546Y358740D01*
X200509Y358633D01*
X200476Y358525D01*
X200446Y358415D01*
X200421Y358305D01*
X200399Y358194D01*
X200382Y358082D01*
X200368Y357969D01*
X200358Y357856D01*
X200352Y357743D01*
X200350Y357630D01*
X195158Y358279D02*
X195158Y354384D01*
X195158Y358279D02*
X195160Y358380D01*
X195166Y358480D01*
X195176Y358580D01*
X195189Y358680D01*
X195207Y358779D01*
X195228Y358878D01*
X195253Y358975D01*
X195282Y359072D01*
X195315Y359167D01*
X195351Y359261D01*
X195391Y359353D01*
X195434Y359444D01*
X195481Y359533D01*
X195531Y359620D01*
X195585Y359706D01*
X195642Y359789D01*
X195702Y359869D01*
X195765Y359948D01*
X195832Y360024D01*
X195901Y360097D01*
X195973Y360167D01*
X196047Y360235D01*
X196124Y360300D01*
X196204Y360361D01*
X196286Y360420D01*
X196370Y360475D01*
X196456Y360527D01*
X196544Y360576D01*
X196634Y360621D01*
X196726Y360663D01*
X196819Y360701D01*
X196914Y360735D01*
X197009Y360766D01*
X197106Y360793D01*
X197204Y360816D01*
X197303Y360836D01*
X197403Y360851D01*
X197503Y360863D01*
X197603Y360871D01*
X197704Y360875D01*
X197804Y360875D01*
X197905Y360871D01*
X198005Y360863D01*
X198105Y360851D01*
X198205Y360836D01*
X198304Y360816D01*
X198402Y360793D01*
X198499Y360766D01*
X198594Y360735D01*
X198689Y360701D01*
X198782Y360663D01*
X198874Y360621D01*
X198964Y360576D01*
X199052Y360527D01*
X199138Y360475D01*
X199222Y360420D01*
X199304Y360361D01*
X199384Y360300D01*
X199461Y360235D01*
X199535Y360167D01*
X199607Y360097D01*
X199676Y360024D01*
X199743Y359948D01*
X199806Y359869D01*
X199866Y359789D01*
X199923Y359706D01*
X199977Y359620D01*
X200027Y359533D01*
X200074Y359444D01*
X200117Y359353D01*
X200157Y359261D01*
X200193Y359167D01*
X200226Y359072D01*
X200255Y358975D01*
X200280Y358878D01*
X200301Y358779D01*
X200319Y358680D01*
X200332Y358580D01*
X200342Y358480D01*
X200348Y358380D01*
X200350Y358279D01*
X200351Y358279D02*
X200351Y355683D01*
X280006Y476980D02*
X283252Y476980D01*
X283365Y476982D01*
X283478Y476988D01*
X283591Y476998D01*
X283704Y477012D01*
X283816Y477029D01*
X283927Y477051D01*
X284037Y477076D01*
X284147Y477106D01*
X284255Y477139D01*
X284362Y477176D01*
X284468Y477216D01*
X284572Y477261D01*
X284675Y477309D01*
X284776Y477360D01*
X284875Y477415D01*
X284972Y477473D01*
X285067Y477535D01*
X285160Y477600D01*
X285250Y477668D01*
X285338Y477739D01*
X285424Y477814D01*
X285507Y477891D01*
X285587Y477971D01*
X285664Y478054D01*
X285739Y478140D01*
X285810Y478228D01*
X285878Y478318D01*
X285943Y478411D01*
X286005Y478506D01*
X286063Y478603D01*
X286118Y478702D01*
X286169Y478803D01*
X286217Y478906D01*
X286262Y479010D01*
X286302Y479116D01*
X286339Y479223D01*
X286372Y479331D01*
X286402Y479441D01*
X286427Y479551D01*
X286449Y479662D01*
X286466Y479774D01*
X286480Y479887D01*
X286490Y480000D01*
X286496Y480113D01*
X286498Y480226D01*
X286496Y480339D01*
X286490Y480452D01*
X286480Y480565D01*
X286466Y480678D01*
X286449Y480790D01*
X286427Y480901D01*
X286402Y481011D01*
X286372Y481121D01*
X286339Y481229D01*
X286302Y481336D01*
X286262Y481442D01*
X286217Y481546D01*
X286169Y481649D01*
X286118Y481750D01*
X286063Y481849D01*
X286005Y481946D01*
X285943Y482041D01*
X285878Y482134D01*
X285810Y482224D01*
X285739Y482312D01*
X285664Y482398D01*
X285587Y482481D01*
X285507Y482561D01*
X285424Y482638D01*
X285338Y482713D01*
X285250Y482784D01*
X285160Y482852D01*
X285067Y482917D01*
X284972Y482979D01*
X284875Y483037D01*
X284776Y483092D01*
X284675Y483143D01*
X284572Y483191D01*
X284468Y483236D01*
X284362Y483276D01*
X284255Y483313D01*
X284147Y483346D01*
X284037Y483376D01*
X283927Y483401D01*
X283816Y483423D01*
X283704Y483440D01*
X283591Y483454D01*
X283478Y483464D01*
X283365Y483470D01*
X283252Y483472D01*
X283901Y488664D02*
X280006Y488664D01*
X283901Y488664D02*
X284002Y488662D01*
X284102Y488656D01*
X284202Y488646D01*
X284302Y488633D01*
X284401Y488615D01*
X284500Y488594D01*
X284597Y488569D01*
X284694Y488540D01*
X284789Y488507D01*
X284883Y488471D01*
X284975Y488431D01*
X285066Y488388D01*
X285155Y488341D01*
X285242Y488291D01*
X285328Y488237D01*
X285411Y488180D01*
X285491Y488120D01*
X285570Y488057D01*
X285646Y487990D01*
X285719Y487921D01*
X285789Y487849D01*
X285857Y487775D01*
X285922Y487698D01*
X285983Y487618D01*
X286042Y487536D01*
X286097Y487452D01*
X286149Y487366D01*
X286198Y487278D01*
X286243Y487188D01*
X286285Y487096D01*
X286323Y487003D01*
X286357Y486908D01*
X286388Y486813D01*
X286415Y486716D01*
X286438Y486618D01*
X286458Y486519D01*
X286473Y486419D01*
X286485Y486319D01*
X286493Y486219D01*
X286497Y486118D01*
X286497Y486018D01*
X286493Y485917D01*
X286485Y485817D01*
X286473Y485717D01*
X286458Y485617D01*
X286438Y485518D01*
X286415Y485420D01*
X286388Y485323D01*
X286357Y485228D01*
X286323Y485133D01*
X286285Y485040D01*
X286243Y484948D01*
X286198Y484858D01*
X286149Y484770D01*
X286097Y484684D01*
X286042Y484600D01*
X285983Y484518D01*
X285922Y484438D01*
X285857Y484361D01*
X285789Y484287D01*
X285719Y484215D01*
X285646Y484146D01*
X285570Y484079D01*
X285491Y484016D01*
X285411Y483956D01*
X285328Y483899D01*
X285242Y483845D01*
X285155Y483795D01*
X285066Y483748D01*
X284975Y483705D01*
X284883Y483665D01*
X284789Y483629D01*
X284694Y483596D01*
X284597Y483567D01*
X284500Y483542D01*
X284401Y483521D01*
X284302Y483503D01*
X284202Y483490D01*
X284102Y483480D01*
X284002Y483474D01*
X283901Y483472D01*
X283901Y483471D02*
X281305Y483471D01*
X290787Y488664D02*
X294682Y476980D01*
X298577Y488664D01*
X302866Y476980D02*
X306112Y476980D01*
X306225Y476982D01*
X306338Y476988D01*
X306451Y476998D01*
X306564Y477012D01*
X306676Y477029D01*
X306787Y477051D01*
X306897Y477076D01*
X307007Y477106D01*
X307115Y477139D01*
X307222Y477176D01*
X307328Y477216D01*
X307432Y477261D01*
X307535Y477309D01*
X307636Y477360D01*
X307735Y477415D01*
X307832Y477473D01*
X307927Y477535D01*
X308020Y477600D01*
X308110Y477668D01*
X308198Y477739D01*
X308284Y477814D01*
X308367Y477891D01*
X308447Y477971D01*
X308524Y478054D01*
X308599Y478140D01*
X308670Y478228D01*
X308738Y478318D01*
X308803Y478411D01*
X308865Y478506D01*
X308923Y478603D01*
X308978Y478702D01*
X309029Y478803D01*
X309077Y478906D01*
X309122Y479010D01*
X309162Y479116D01*
X309199Y479223D01*
X309232Y479331D01*
X309262Y479441D01*
X309287Y479551D01*
X309309Y479662D01*
X309326Y479774D01*
X309340Y479887D01*
X309350Y480000D01*
X309356Y480113D01*
X309358Y480226D01*
X309356Y480339D01*
X309350Y480452D01*
X309340Y480565D01*
X309326Y480678D01*
X309309Y480790D01*
X309287Y480901D01*
X309262Y481011D01*
X309232Y481121D01*
X309199Y481229D01*
X309162Y481336D01*
X309122Y481442D01*
X309077Y481546D01*
X309029Y481649D01*
X308978Y481750D01*
X308923Y481849D01*
X308865Y481946D01*
X308803Y482041D01*
X308738Y482134D01*
X308670Y482224D01*
X308599Y482312D01*
X308524Y482398D01*
X308447Y482481D01*
X308367Y482561D01*
X308284Y482638D01*
X308198Y482713D01*
X308110Y482784D01*
X308020Y482852D01*
X307927Y482917D01*
X307832Y482979D01*
X307735Y483037D01*
X307636Y483092D01*
X307535Y483143D01*
X307432Y483191D01*
X307328Y483236D01*
X307222Y483276D01*
X307115Y483313D01*
X307007Y483346D01*
X306897Y483376D01*
X306787Y483401D01*
X306676Y483423D01*
X306564Y483440D01*
X306451Y483454D01*
X306338Y483464D01*
X306225Y483470D01*
X306112Y483472D01*
X306761Y488664D02*
X302866Y488664D01*
X306761Y488664D02*
X306862Y488662D01*
X306962Y488656D01*
X307062Y488646D01*
X307162Y488633D01*
X307261Y488615D01*
X307360Y488594D01*
X307457Y488569D01*
X307554Y488540D01*
X307649Y488507D01*
X307743Y488471D01*
X307835Y488431D01*
X307926Y488388D01*
X308015Y488341D01*
X308102Y488291D01*
X308188Y488237D01*
X308271Y488180D01*
X308351Y488120D01*
X308430Y488057D01*
X308506Y487990D01*
X308579Y487921D01*
X308649Y487849D01*
X308717Y487775D01*
X308782Y487698D01*
X308843Y487618D01*
X308902Y487536D01*
X308957Y487452D01*
X309009Y487366D01*
X309058Y487278D01*
X309103Y487188D01*
X309145Y487096D01*
X309183Y487003D01*
X309217Y486908D01*
X309248Y486813D01*
X309275Y486716D01*
X309298Y486618D01*
X309318Y486519D01*
X309333Y486419D01*
X309345Y486319D01*
X309353Y486219D01*
X309357Y486118D01*
X309357Y486018D01*
X309353Y485917D01*
X309345Y485817D01*
X309333Y485717D01*
X309318Y485617D01*
X309298Y485518D01*
X309275Y485420D01*
X309248Y485323D01*
X309217Y485228D01*
X309183Y485133D01*
X309145Y485040D01*
X309103Y484948D01*
X309058Y484858D01*
X309009Y484770D01*
X308957Y484684D01*
X308902Y484600D01*
X308843Y484518D01*
X308782Y484438D01*
X308717Y484361D01*
X308649Y484287D01*
X308579Y484215D01*
X308506Y484146D01*
X308430Y484079D01*
X308351Y484016D01*
X308271Y483956D01*
X308188Y483899D01*
X308102Y483845D01*
X308015Y483795D01*
X307926Y483748D01*
X307835Y483705D01*
X307743Y483665D01*
X307649Y483629D01*
X307554Y483596D01*
X307457Y483567D01*
X307360Y483542D01*
X307261Y483521D01*
X307162Y483503D01*
X307062Y483490D01*
X306962Y483480D01*
X306862Y483474D01*
X306761Y483472D01*
X306761Y483471D02*
X304165Y483471D01*
X283926Y203960D02*
X280680Y203960D01*
X283926Y203960D02*
X284039Y203962D01*
X284152Y203968D01*
X284265Y203978D01*
X284378Y203992D01*
X284490Y204009D01*
X284601Y204031D01*
X284711Y204056D01*
X284821Y204086D01*
X284929Y204119D01*
X285036Y204156D01*
X285142Y204196D01*
X285246Y204241D01*
X285349Y204289D01*
X285450Y204340D01*
X285549Y204395D01*
X285646Y204453D01*
X285741Y204515D01*
X285834Y204580D01*
X285924Y204648D01*
X286012Y204719D01*
X286098Y204794D01*
X286181Y204871D01*
X286261Y204951D01*
X286338Y205034D01*
X286413Y205120D01*
X286484Y205208D01*
X286552Y205298D01*
X286617Y205391D01*
X286679Y205486D01*
X286737Y205583D01*
X286792Y205682D01*
X286843Y205783D01*
X286891Y205886D01*
X286936Y205990D01*
X286976Y206096D01*
X287013Y206203D01*
X287046Y206311D01*
X287076Y206421D01*
X287101Y206531D01*
X287123Y206642D01*
X287140Y206754D01*
X287154Y206867D01*
X287164Y206980D01*
X287170Y207093D01*
X287172Y207206D01*
X287170Y207319D01*
X287164Y207432D01*
X287154Y207545D01*
X287140Y207658D01*
X287123Y207770D01*
X287101Y207881D01*
X287076Y207991D01*
X287046Y208101D01*
X287013Y208209D01*
X286976Y208316D01*
X286936Y208422D01*
X286891Y208526D01*
X286843Y208629D01*
X286792Y208730D01*
X286737Y208829D01*
X286679Y208926D01*
X286617Y209021D01*
X286552Y209114D01*
X286484Y209204D01*
X286413Y209292D01*
X286338Y209378D01*
X286261Y209461D01*
X286181Y209541D01*
X286098Y209618D01*
X286012Y209693D01*
X285924Y209764D01*
X285834Y209832D01*
X285741Y209897D01*
X285646Y209959D01*
X285549Y210017D01*
X285450Y210072D01*
X285349Y210123D01*
X285246Y210171D01*
X285142Y210216D01*
X285036Y210256D01*
X284929Y210293D01*
X284821Y210326D01*
X284711Y210356D01*
X284601Y210381D01*
X284490Y210403D01*
X284378Y210420D01*
X284265Y210434D01*
X284152Y210444D01*
X284039Y210450D01*
X283926Y210452D01*
X284575Y215644D02*
X280680Y215644D01*
X284575Y215644D02*
X284676Y215642D01*
X284776Y215636D01*
X284876Y215626D01*
X284976Y215613D01*
X285075Y215595D01*
X285174Y215574D01*
X285271Y215549D01*
X285368Y215520D01*
X285463Y215487D01*
X285557Y215451D01*
X285649Y215411D01*
X285740Y215368D01*
X285829Y215321D01*
X285916Y215271D01*
X286002Y215217D01*
X286085Y215160D01*
X286165Y215100D01*
X286244Y215037D01*
X286320Y214970D01*
X286393Y214901D01*
X286463Y214829D01*
X286531Y214755D01*
X286596Y214678D01*
X286657Y214598D01*
X286716Y214516D01*
X286771Y214432D01*
X286823Y214346D01*
X286872Y214258D01*
X286917Y214168D01*
X286959Y214076D01*
X286997Y213983D01*
X287031Y213888D01*
X287062Y213793D01*
X287089Y213696D01*
X287112Y213598D01*
X287132Y213499D01*
X287147Y213399D01*
X287159Y213299D01*
X287167Y213199D01*
X287171Y213098D01*
X287171Y212998D01*
X287167Y212897D01*
X287159Y212797D01*
X287147Y212697D01*
X287132Y212597D01*
X287112Y212498D01*
X287089Y212400D01*
X287062Y212303D01*
X287031Y212208D01*
X286997Y212113D01*
X286959Y212020D01*
X286917Y211928D01*
X286872Y211838D01*
X286823Y211750D01*
X286771Y211664D01*
X286716Y211580D01*
X286657Y211498D01*
X286596Y211418D01*
X286531Y211341D01*
X286463Y211267D01*
X286393Y211195D01*
X286320Y211126D01*
X286244Y211059D01*
X286165Y210996D01*
X286085Y210936D01*
X286002Y210879D01*
X285916Y210825D01*
X285829Y210775D01*
X285740Y210728D01*
X285649Y210685D01*
X285557Y210645D01*
X285463Y210609D01*
X285368Y210576D01*
X285271Y210547D01*
X285174Y210522D01*
X285075Y210501D01*
X284976Y210483D01*
X284876Y210470D01*
X284776Y210460D01*
X284676Y210454D01*
X284575Y210452D01*
X284575Y210451D02*
X281979Y210451D01*
X291461Y215644D02*
X295356Y203960D01*
X299251Y215644D01*
X303540Y203960D02*
X306786Y203960D01*
X306899Y203962D01*
X307012Y203968D01*
X307125Y203978D01*
X307238Y203992D01*
X307350Y204009D01*
X307461Y204031D01*
X307571Y204056D01*
X307681Y204086D01*
X307789Y204119D01*
X307896Y204156D01*
X308002Y204196D01*
X308106Y204241D01*
X308209Y204289D01*
X308310Y204340D01*
X308409Y204395D01*
X308506Y204453D01*
X308601Y204515D01*
X308694Y204580D01*
X308784Y204648D01*
X308872Y204719D01*
X308958Y204794D01*
X309041Y204871D01*
X309121Y204951D01*
X309198Y205034D01*
X309273Y205120D01*
X309344Y205208D01*
X309412Y205298D01*
X309477Y205391D01*
X309539Y205486D01*
X309597Y205583D01*
X309652Y205682D01*
X309703Y205783D01*
X309751Y205886D01*
X309796Y205990D01*
X309836Y206096D01*
X309873Y206203D01*
X309906Y206311D01*
X309936Y206421D01*
X309961Y206531D01*
X309983Y206642D01*
X310000Y206754D01*
X310014Y206867D01*
X310024Y206980D01*
X310030Y207093D01*
X310032Y207206D01*
X310030Y207319D01*
X310024Y207432D01*
X310014Y207545D01*
X310000Y207658D01*
X309983Y207770D01*
X309961Y207881D01*
X309936Y207991D01*
X309906Y208101D01*
X309873Y208209D01*
X309836Y208316D01*
X309796Y208422D01*
X309751Y208526D01*
X309703Y208629D01*
X309652Y208730D01*
X309597Y208829D01*
X309539Y208926D01*
X309477Y209021D01*
X309412Y209114D01*
X309344Y209204D01*
X309273Y209292D01*
X309198Y209378D01*
X309121Y209461D01*
X309041Y209541D01*
X308958Y209618D01*
X308872Y209693D01*
X308784Y209764D01*
X308694Y209832D01*
X308601Y209897D01*
X308506Y209959D01*
X308409Y210017D01*
X308310Y210072D01*
X308209Y210123D01*
X308106Y210171D01*
X308002Y210216D01*
X307896Y210256D01*
X307789Y210293D01*
X307681Y210326D01*
X307571Y210356D01*
X307461Y210381D01*
X307350Y210403D01*
X307238Y210420D01*
X307125Y210434D01*
X307012Y210444D01*
X306899Y210450D01*
X306786Y210452D01*
X307435Y215644D02*
X303540Y215644D01*
X307435Y215644D02*
X307536Y215642D01*
X307636Y215636D01*
X307736Y215626D01*
X307836Y215613D01*
X307935Y215595D01*
X308034Y215574D01*
X308131Y215549D01*
X308228Y215520D01*
X308323Y215487D01*
X308417Y215451D01*
X308509Y215411D01*
X308600Y215368D01*
X308689Y215321D01*
X308776Y215271D01*
X308862Y215217D01*
X308945Y215160D01*
X309025Y215100D01*
X309104Y215037D01*
X309180Y214970D01*
X309253Y214901D01*
X309323Y214829D01*
X309391Y214755D01*
X309456Y214678D01*
X309517Y214598D01*
X309576Y214516D01*
X309631Y214432D01*
X309683Y214346D01*
X309732Y214258D01*
X309777Y214168D01*
X309819Y214076D01*
X309857Y213983D01*
X309891Y213888D01*
X309922Y213793D01*
X309949Y213696D01*
X309972Y213598D01*
X309992Y213499D01*
X310007Y213399D01*
X310019Y213299D01*
X310027Y213199D01*
X310031Y213098D01*
X310031Y212998D01*
X310027Y212897D01*
X310019Y212797D01*
X310007Y212697D01*
X309992Y212597D01*
X309972Y212498D01*
X309949Y212400D01*
X309922Y212303D01*
X309891Y212208D01*
X309857Y212113D01*
X309819Y212020D01*
X309777Y211928D01*
X309732Y211838D01*
X309683Y211750D01*
X309631Y211664D01*
X309576Y211580D01*
X309517Y211498D01*
X309456Y211418D01*
X309391Y211341D01*
X309323Y211267D01*
X309253Y211195D01*
X309180Y211126D01*
X309104Y211059D01*
X309025Y210996D01*
X308945Y210936D01*
X308862Y210879D01*
X308776Y210825D01*
X308689Y210775D01*
X308600Y210728D01*
X308509Y210685D01*
X308417Y210645D01*
X308323Y210609D01*
X308228Y210576D01*
X308131Y210547D01*
X308034Y210522D01*
X307935Y210501D01*
X307836Y210483D01*
X307736Y210470D01*
X307636Y210460D01*
X307536Y210454D01*
X307435Y210452D01*
X307435Y210451D02*
X304839Y210451D01*
D11*
X346202Y221996D02*
X346202Y469900D01*
X416560Y244602D02*
X275590Y244602D01*
X250190Y270002D02*
X441960Y270002D01*
X441960Y295402D02*
X250190Y295402D01*
X224790Y320802D02*
X467360Y320802D01*
X467360Y346202D02*
X224790Y346202D01*
X224790Y371602D02*
X467360Y371602D01*
X441960Y397002D02*
X250190Y397002D01*
X250190Y422402D02*
X441960Y422402D01*
X416560Y447802D02*
X275590Y447802D01*
M02*
